<?xml version="1.0" encoding="utf-8"?>
<!-- Generator: Adobe Illustrator 25.0.1, SVG Export Plug-In . SVG Version: 6.00 Build 0)  -->
<svg version="1.1" id="Layer_1" xmlns="http://www.w3.org/2000/svg" xmlns:xlink="http://www.w3.org/1999/xlink" x="0px" y="0px"
	 viewBox="0 0 6228 4235" style="enable-background:new 0 0 6228 4235;" xml:space="preserve">
<style type="text/css">
	.st0{fill:none;stroke:#000000;stroke-width:15;}
</style>
<image style="overflow:visible;enable-background:new    ;" width="6228" height="4235" xlink:href="https://i.ibb.co/HgdPgBG/29F7CC46.png" >
</image>
<path id="fuschia-A-BLOCK" class="st0" d="M600.1,728.4l256.9,1.4l0.4-101.8l42.1,0.2l-0.2,37.9l189.6-2.1l2.1-25.9l49.2,0.2
	l-0.1,18l351.1,1.7l-0.8,158.6l108.3,0.5l0.9-186.6l218.7,1.1l-0.7,143.7l78.2,0.4l0.5-106.8l134.4,0.7l0.1-24.9l48.1,0.2l-0.1,27.9
	l189.6,0.9l0.2-39.9l49.1,0.2l-0.6,113.7l258.8,1.3l-2,398.1l-63.2-0.3l-0.4,80.8l-133.4-0.7l-0.3,54.9l-340-1.7l-1.3,271.4l341,1.7
	l-0.2,38.9l138.4,0.7l-0.4,83.8l51.1,0.3l-2,405l-252.8-1.2l-0.6,113.7l-43.1-0.2l0.2-42.9l-192.6-0.9l-0.1,29.9l-54.2-0.3l0.1-26.9
	l-135.4-0.7l0.5-98.8l-78.2-0.4l-0.8,162.6l-205.6-1l1.1-216.5l-126.4-0.6l-0.8,153.6l-129.4-0.6l-210.6-1l-0.1,26.9l-53.2-0.3
	l0.2-29.9l-187.6-0.9l-0.2,43.9l-47.1-0.2l0.4-80.8l-247.9-1.4l1.6-317.3l-5.9,0.2l0.6-125.7l54.2,0.3l0.4-76.8l136.4,0.7l0.2-39.9
	l370.1,1.8l-0.2,30.9l493.5,2.4l1.7-341.2l-493.5-2.4l-0.2,29.9l-371.1-1.8l0.2-44.9l-141.4-0.7l0.4-78.8l-53.2-0.3l0.6-130.7
	l2.9-0.2L600.1,728.4z"/>
<path id="fuschia-A-03" class="st0" d="M2571.3,1679l-2,406.1l-256.8-1.3l-0.5,104.8l-45.1-0.2l0.2-34.9l-191.6-0.9l-0.1,29.9
	l-45.1-0.2l0.1-24.9l-141.4-0.7l0.5-97.8l-74.2-0.4l1.6-318.2l208.6,1l1-191.6l355.1,1.7l-0.2,39.9l133.4,0.7l-0.4,88.8L2571.3,1679
	z"/>
<path id="fuschia-A-04_" class="st0" d="M1600.1,1740.1l-1.3,260.4l-116.3-0.6l-0.8,149.7l-590.8-2.9l-0.2,40.9l-47.1-0.2l0.4-85.8
	l-244.8-1.4l1.5-308.3l-2.9,0.2l0.6-125.7l48.1,0.2l0.4-71.8l139.4,0.7l0.2-48.9l370.1,1.8l-0.2,36.9l204.6,1l-0.8,154.6
	L1600.1,1740.1z"/>
<path id="fuschia-A-02" class="st0" d="M2578,738.2l-2,411l-51.2-0.2l-0.4,82.8l-149.4-0.7l-0.2,48.9l-346-1.7l0.1-26.9l-159.5-0.8
	l0.8-158.6l-59.2-0.3l1.6-323.2l77.2,0.4l0.5-104.8l140.4,0.7l0.1-21.9l57.2,0.3l-0.1,16l175.5,0.9l0.1-24.9l63.2,0.3l-0.5,99.8
	L2578,738.2z"/>
<path id="fuschia-A-01_" class="st0" d="M1160.1,1267l-369.1-1.8l0.2-34.9l-144.4-0.7l0.5-90.8l-49.1-0.2l0.6-119.7l-5.1-0.2
	l1.6-295.2l252.9,1.4l0.3-93.8l51.2,0.3l-0.1,27.9l188.6-2.1l0.1-21.9l51.2,0.3l-0.1,23.9l353.1,1.7l-0.8,162.6l105.3,0.5
	l-1.3,256.4l-238.7-1.2l-0.8,153.6l-194.6-1L1160.1,1267z"/>
</svg>
