<?xml version="1.0" encoding="utf-8"?>
<!-- Generator: Adobe Illustrator 25.0.1, SVG Export Plug-In . SVG Version: 6.00 Build 0)  -->
<svg version="1.1" id="Layer_1" xmlns="http://www.w3.org/2000/svg" xmlns:xlink="http://www.w3.org/1999/xlink" x="0px" y="0px"
	 viewBox="0 0 8172 5482" style="enable-background:new 0 0 8172 5482;" xml:space="preserve">
<style type="text/css">
	.st0{fill:none;stroke:#000000;stroke-width:15;}
</style>
<image style="overflow:visible;enable-background:new    ;" width="8172" height="5482" xlink:href="B3FC3F73.png" >
</image>
<path id="fuschias-B-BLOCK" class="st0" d="M4393.4,2508.9l-269.8-1.4l-0.4,107.8l-51.1-0.2l0.2-33.9l-184.6-0.9l-0.1,23.9
	l-56.2-0.3l0.1-19.9l-352.1-1.7l0.8-156.6l-109.3-0.5l-1.1,212.5l-227.7-1.1l0.8-160.6l-67.2-0.3l-0.5,103.7l-132.4-0.6l-0.1,24.9
	l-54.2-0.3l0.1-27.9l-192.6-0.9l-0.2,38.9l-45.1-0.2l0.6-114.7l-255.8-1.2l2-405l58.2,0.3l0.4-80.8l138.4,0.7l0.2-41.9l351,1.7
	l1.4-278.3l-355.1-1.8l0.2-41.9l-131.4-0.7l0.4-83.8l-61.2-0.3l2-405l262.8,1.3l0.5-107.7l42.1,0.2l-0.2,39.9l189.6,0.9l0.2-30.9
	l47.1,0.2l-0.1,20.9l136.4,0.7l-0.6,108.7l78.2,0.4l0.7-134.7l219.6,1.1l-0.9,187.5l114.3,0.6l0.8-154.6l346,1.7l0.1-27.9l56.2,0.3
	l-0.1,30.9l184.5,3.9l0.2-45.9l51.2,0.2l-0.4,87.8l263.8,1.4l-1.6,302.2l-14.1-0.2l-0.7,133.7l-45.1-0.2l-0.4,75.8l-147.4-0.7
	l-0.2,40.9l-371.1-1.8l0.1-29.9l-483.4-2.4l-1.7,336.1l484.4,2.4l0.1-27.9l369.1,1.8l-0.2,42.9l142.4,0.7l-0.4,82.8l50.1,0.2
	l-0.6,126.7l22.1,0.1L4393.4,2508.9z"/>
<path id="fuschia-B-03" class="st0" d="M4391.4,2511.9l1.5-276.2l-15.1-0.1l0.6-128.7l-54.2-0.3l0.4-83.8l-136.4-0.7l0.2-46.9
	l-379.1-1.9l-0.2,44.9l-195.6-1l-0.8,151.6l-242.7-1.2l-1.3,260.3l119.4,0.6l-0.7,146.6l346,1.7l-0.1,26.9l52.2,0.2l0.1-23.9
	l180.5,0.9l-0.2,33.9l56.2,0.3l0.4-104.8L4391.4,2511.9z"/>
<path id="fuschia-B-04" class="st0" d="M3146,2474.9l6.6-320.2l-207.6-1l0.9-182.5l-354.1-1.7l-0.2,41.9l-132.4-0.7l-0.4,84.8
	l-57.2-0.3l-2,400l258.8,1.3l-0.6,117.7l39.1,0.2l0.2-44.9l189.6,0.9l-0.1,28.9l50.1,0.2l0.1-19.9l138.4,0.7l0.5-101.7L3146,2474.9z
	"/>
<path id="fuschia-B-02" class="st0" d="M3817.9,1694.2l369.1,7.8l1.2-43.9l143.4,0.7l0.4-78.8l49.1,0.2l0.6-128.7l12.1,0.2
	l1.6-305.2l-267.8-1.4l0.3-76.8l-54.2-0.3l-0.2,31.9L3893,1099l0.1-29.9l-46.1-0.2l-0.1,21.9l-213.6-1.1l0.2-32.9l-14-0.1l-0.1,25.9
	l-130.4-0.6l-0.8,155.6l-111.3-0.6l-1.3,269.3l238.7,1.2l-0.8,159.6l203.6,1L3817.9,1694.2z"/>
<path id="fuschia-B-01" class="st0" d="M3151.4,1192.2l-1.6,316.2l-59.2-0.3l-0.8,164.6l-147.4-0.7l-0.1,27.9l-350-1.7l0.2-48.9
	l-132.4-0.7l0.4-82.8l-54.2-0.3l2-404l253.8,1.2l0.6-110.7l47.1,0.2l-0.2,41.9l178.5,0.9l0.1-29.9l57.2,0.3l-0.1,17l138.4,0.7
	l-0.5,107.7L3151.4,1192.2z"/>
<path id="fuschia-A-BLOCK" class="st0" d="M433.5,1141.8l256.9,1.4l0.4-101.8l42.1,0.2l-0.2,37.9l189.6-2.1l2.1-25.9l49.1,0.2
	l-0.1,18l351,1.7l-0.8,158.6l108.3,0.5l0.9-186.5l218.6,1.1l-0.7,143.6l78.2,0.4l0.5-106.7l134.4,0.7l0.1-24.9l48.2,0.2l-0.1,27.9
	l189.6,0.9l0.2-39.9l49.1,0.2l-0.6,113.7l258.8,1.3l-2,398l-63.2-0.3l-0.4,80.8l-133.4-0.7l-0.3,54.9l-340-1.7l-1.3,271.3l341,1.7
	l-0.2,38.9l138.4,0.7l-0.4,83.8l51.2,0.3l-2,405l-252.7-1.2l-0.6,113.7l-43.1-0.2l0.2-42.9l-192.6-0.9l-0.2,29.9l-54.2-0.3l0.1-26.9
	l-135.4-0.7l0.5-98.8l-78.2-0.4l-0.8,162.6l-205.6-1l1.1-216.4l-126.4-0.6l-0.8,153.6l-129.4-0.6l-210.6-1l-0.1,26.9l-53.2-0.3
	l0.1-29.9l-187.6-0.9l-0.2,43.9l-47.1-0.2l0.4-80.8l-247.8-1.4l1.6-317.2l-5.9,0.2l0.6-125.7l54.2,0.3l0.4-76.8l136.4,0.7l0.2-39.9
	l370.1,1.8l-0.2,30.9l493.5,2.4l1.7-341.1l-493.5-2.4l-0.1,29.9l-371.1-1.8l0.2-44.9l-141.4-0.7l0.4-78.8l-53.2-0.3l0.6-130.7
	l2.9-0.2L433.5,1141.8z"/>
<path id="fuschia-A-03" class="st0" d="M2404.7,2092.2l-2,406l-256.8-1.3l-0.5,104.7l-45.1-0.2l0.2-34.9l-191.6-0.9l-0.2,29.9
	l-45.1-0.2l0.1-24.9l-141.4-0.7l0.5-97.8l-74.2-0.4l1.6-318.2l208.6,1l0.9-191.5l355.1,1.8l-0.2,39.9l133.4,0.7l-0.4,88.8
	L2404.7,2092.2z"/>
<path id="fuschia-A-04_" class="st0" d="M1433.5,2153.3l-1.3,260.3l-116.3-0.6l-0.8,149.6l-590.7-2.9l-0.2,40.9l-47.1-0.2l0.4-85.8
	l-244.8-1.4l1.5-308.2l-2.9,0.2l0.6-125.7l48.1,0.2l0.4-71.8l139.4,0.7l0.2-48.9l370.1,1.8l-0.2,36.9l204.6,1l-0.8,154.6
	L1433.5,2153.3z"/>
<path id="fuschia-A-02" class="st0" d="M2411.4,1151.6l-2,411l-51.1-0.2l-0.4,82.8l-149.4-0.7l-0.2,48.9l-346-1.7l0.1-26.9
	l-159.5-0.8l0.8-158.6l-59.2-0.3l1.6-323.2l77.2,0.4l0.5-104.7l140.4,0.7l0.1-21.9l57.2,0.3l-0.1,16l175.5,0.9l0.1-24.9l63.2,0.3
	l-0.5,99.8L2411.4,1151.6z"/>
<path id="fuschia-A-01_" class="st0" d="M993.5,1680.3l-369.1-1.8l0.2-34.9l-144.4-0.7l0.5-90.8l-49.1-0.2l0.6-119.7l-5.1-0.2
	l1.6-295.2l252.8,1.4l0.3-93.8l51.2,0.2l-0.1,27.9l188.6-2.1l0.1-21.9l51.2,0.2l-0.1,23.9l353,1.7l-0.8,162.6l105.3,0.5l-1.3,256.3
	l-238.7-1.2l-0.8,153.6l-194.6-1L993.5,1680.3z"/>
</svg>
