<?xml version="1.0" encoding="utf-8"?>
<!-- Generator: Adobe Illustrator 25.0.1, SVG Export Plug-In . SVG Version: 6.00 Build 0)  -->
<svg version="1.1" id="Layer_1" xmlns="http://www.w3.org/2000/svg" xmlns:xlink="http://www.w3.org/1999/xlink" x="0px" y="0px"
	 viewBox="0 0 7082 5482" style="enable-background:new 0 0 7082 5482;" xml:space="preserve">
<style type="text/css">
	.st0{fill:none;stroke:#000000;stroke-width:15;}
</style>
<image style="overflow:visible;enable-background:new    ;" width="7082" height="5482" xlink:href="D7A0B3BC.png" >
</image>
<image style="overflow:visible;enable-background:new    ;" width="7082" height="5482" id="Group_1_copy_9" xlink:href="D7A0B3BD.png" >
</image>
<image style="overflow:visible;enable-background:new    ;" width="459" height="234" xlink:href="D7A0B3BB.png"  transform="matrix(1 0 0 1 5029 2096)">
</image>
<path id="hibicus-A-BLOCK" class="st0" d="M1181.6,1148.4l261.8,1.4l0.4-101.8l42.1,0.2l-0.2,34.9l189.5,0.9l2.1-25.9l49.1,0.2
	l-0.1,17.9l351,1.7l-0.8,158.6l108.3,0.5l0.9-186.6l218.6,1.1l-0.7,143.7l78.2,0.4l0.5-106.8l134.4,0.7l0.1-24.9l48.1,0.2l-0.1,27.9
	l189.5,0.9l0.2-39.9l49.1,0.2l-0.6,113.7l258.7,1.3l-2,398.1l-63.2-0.3l-0.4,80.8l-133.4-0.7l-0.3,54.9l-339.9-1.7l-1.4,271.4
	l340.9,1.7l-0.2,38.9l138.4,0.7l-0.4,83.8l51.1,0.3l-2,405l-252.7-1.2l-0.6,113.7l-43.1-0.2l0.2-42.9l-192.5-0.9l-0.1,29.9
	l-54.1-0.3l0.1-26.9l-135.4-0.7l0.5-98.8l-78.2-0.4l-0.8,162.6l-205.6-1l1.1-216.5l-126.4-0.6l-0.8,153.6l-129.3-0.6l-210.6-1
	l-0.1,26.9l-53.2-0.3l0.2-29.9l-187.5-0.9l-0.2,43.9l-47.1-0.2l0.4-80.8l-246.8-1.4l1.6-317.3l-6.9,0.2l0.6-125.7l54.2,0.3l0.4-76.8
	l136.4,0.7l0.2-39.9l370,1.8l-0.2,30.9l493.4,2.4l1.7-341.2l-493.4-2.4l-0.2,29.9l-371-1.8l0.2-44.9l-141.4-0.7l0.4-78.8l-53.2-0.3
	l0.7-130.7l-2.1-0.2L1181.6,1148.4z"/>
<path id="hibicus-A-03" class="st0" d="M3157.3,2099l-2,406.1l-256.7-1.3l-0.5,104.8l-45.1-0.2l0.2-34.9l-191.5-0.9l-0.1,29.9
	l-45.1-0.2l0.1-24.9l-141.4-0.7l0.5-97.8l-74.2-0.4l1.6-318.2l208.6,1l1-191.6l355,1.7l-0.2,39.9l133.4,0.7l-0.4,88.8L3157.3,2099z"
	/>
<path id="hibicus-A-04_" class="st0" d="M2186.3,2160.1l-1.3,260.4l-116.3-0.6l-0.7,149.6l-590.6-2.9l-0.2,40.9l-47.1-0.2l0.4-85.8
	l-243.8-1.4l1.5-308.3l-3.9,0.2l0.6-125.7l48.1,0.2l0.4-71.8l139.4,0.7l0.2-48.9l370,1.8l-0.2,36.9l204.6,1l-0.8,154.6
	L2186.3,2160.1z"/>
<path id="hibicus-A-02" class="st0" d="M3164,1158.2l-2,411l-51.1-0.2l-0.4,82.8l-149.4-0.7l-0.2,48.9l-345.9-1.7l0.1-26.9
	l-159.4-0.8l0.8-158.6l-59.2-0.3l1.6-323.2l77.2,0.4l0.5-104.8l140.4,0.7l0.1-21.9l57.2,0.3l-0.1,16l175.5,0.9l0.1-24.9l63.2,0.3
	l-0.5,99.8L3164,1158.2z"/>
<path id="hibicus-A-01_" class="st0" d="M1746.4,1687l-369-1.8l0.2-34.9l-144.4-0.7l0.4-90.8l-49.1-0.2l0.6-119.7l-10.1-0.2
	l1.6-295.2l257.8,1.4l0.3-93.8l51.1,0.2l-0.1,24.9l188.5,0.9l0.1-21.9l51.1,0.2l-0.1,23.9l353,1.7l-0.8,162.6l105.3,0.5l-1.3,256.4
	l-238.7-1.2l-0.8,153.6l-194.5-1L1746.4,1687z"/>
</svg>
