<?xml version="1.0" encoding="utf-8"?>
<!-- Generator: Adobe Illustrator 25.0.1, SVG Export Plug-In . SVG Version: 6.00 Build 0)  -->
<svg version="1.1" id="GARDENIA-A" xmlns="http://www.w3.org/2000/svg" xmlns:xlink="http://www.w3.org/1999/xlink" x="0px" y="0px"
	 viewBox="0 0 6539 5478" style="enable-background:new 0 0 6539 5478;" xml:space="preserve">
<style type="text/css">
	.st0{fill:none;stroke:#000000;stroke-width:22;}
	.st1{fill:none;stroke:#000000;stroke-width:15;}
	.st2{fill:none;stroke:#000000;stroke-width:12;}
</style>
<image style="overflow:visible;enable-background:new    ;" width="6852" height="5478" xlink:href="https://i.ibb.co/84ft1k6/8138BBE6.png"  transform="matrix(1 0 0 1 -313 0)">
</image>
<path id="_GARDENIA-A-BLOCK" class="st0" d="M983.4,1582.9h288.9v-106.8h65v30.2h212.4v-17.4h61.5v17.4h239.1v-32.5h17.4v30.2h545.4
	v-30.2h16.2v30.2h240.2v-13.9h62.7v15.1h211.2v-29h62.7v98.2h311.7v361.4h-19.3v141.6h-77.8v90.5h-147.4v58l-424.9-2.8v-212.4
	l-497.7,2.8v439.9h591.8v22.1h-8.1v83.6h212.4v84.7h66.1v489.8h-401.5v56.9h-360.9v-55.7h-117.2v118.4h-22.1v-32.5h-235.6v31.3
	h-54.4v-470.1h77.6v-117.2h-208.9v892.6h18.6v66.2h-17.4V3895h-85.9v289H367.5v-290.2H233.7V3837h36v-213.6H250v-66.2h19.7v-161.3
	h131.1v-94h224v-168.3H405.5v-92.9H266.2v-161.3h-17.4v-68.5H272v-206.6h-38.3v-62.7h109.1V2313h16.2v-69.6h232.1v-11.6h99.8v13.9
	h152v70.8h84.7v154.4H988v176.4h227.5v-70.8h267.7v-344.7h-274.6v-62.7h-154.3v-85.9h-78.9v-146.3h4.7L983.4,1582.9z"/>
<path id="GARDENIA-A-01" class="st1" d="M2139.2,1506.3v308.7H1957v409.7h-749.7v-55.7l-149.7-2.3v-83.6h-84.7v-148.6h7v-356.3
	h294.7v-106.8h58v29h213.5v-18.6h59.2v23.2h241.4v-34.8h20.9v33.7L2139.2,1506.3z"/>
<path id="GARDENIA-A-02" class="st1" d="M3296.2,2069.2h-77.8v94h-146.2v62.7l-423.7-2.8v-211.2l-330.6,2.8v-197.3h-176.4v-309.9
	h530.3v-17.4h59.2v26.7h213.5V1475h56.9v108.7h311.7v349.8H3295L3296.2,2069.2z"/>
<path id="GARDENIA-A-03" class="st2" d="M2421.2,2463.9h315.6v95.2h206.6v85.9h70.8v489.8h-410.8v54.6h-175.2L2421.2,2463.9z"/>
<path id="GARDENIA-A-04" class="st1" d="M2425.8,2643.8h-518.7v137h-83.4v473.6h49.8v-39.5h237.9v39.5h19.7v-117.2h121.9v53.4h175.2
	L2425.8,2643.8z"/>
<path id="GARDENIA-A-05" class="st1" d="M1678.5,3311.2v246.1h26.7l-1.2,63.8h-23.2l5.8,269.3h-89.3V4184h-475.8v-270.5H979.9v-354
	h224V3310L1678.5,3311.2z"/>
<path id="GARDENIA-A-06" class="st1" d="M758.3,3311.2v247.2l215.8,3.5V3924H832.5v256.5H371v-289H233.7V3837h46.4v-219.4H250v-56.9
	h20.9v-157.9h143.9l1.2-89.4L758.3,3311.2z"/>
<path id="GARDENIA-A-07_" class="st1" d="M833.7,2258.4H686.3v-30.2h-95.2v18.6H352.1v289H231.4v67.3h37.1v210.1h-19.7v65h13.9
	v162.5h140.4v90.5h577.9V2472h-55.7v-157.9h-90.5L833.7,2258.4z"/>
</svg>
