<?xml version="1.0" encoding="utf-8"?>
<!-- Generator: Adobe Illustrator 25.0.1, SVG Export Plug-In . SVG Version: 6.00 Build 0)  -->
<svg version="1.1" id="GARDENIA-B" xmlns="http://www.w3.org/2000/svg" xmlns:xlink="http://www.w3.org/1999/xlink" x="0px" y="0px"
	 viewBox="0 0 4052 2720" style="enable-background:new 0 0 4052 2720;" xml:space="preserve">
<style type="text/css">
	.st0{fill:none;stroke:#000000;stroke-width:15;}
</style>
<image style="overflow:visible;enable-background:new    ;" width="4385" height="2850" xlink:href="B390AD3F.png"  transform="matrix(1 0 0 1 -333 0)">
</image>
<path id="_GARDENIA-B-BLOCK" class="st0" d="M2297.6,2367.7H2061v102.5h-43.7v-34.8l-156.5,3.7l-0.9,22H1808v-15.6h-129.2v-99.8
	h-73.9v96.1h-397.5v18.3h-52.8v-18.3H991.7v31.1h-57.5v-88.5H681.3v-274.8h24.1V1998h68.7v-74.1h117.4v-45.8h206.6v-298.3H905.2
	v-64.1H705v144.6h-36.4v124.5H594v58.6H479.3v11h-73.7v-9.2H201.3v-62.2h-12.7v-176.6h-88.3v-45.8h27.3V1393h-11.8v-50.3h14.6
	v-125.4h111.9v-69.6h200.6v-137.3h-206v-75H132.4V803.7h-13.6V757h21.8V590.4h-31.9v-40.3h95.6V312.2h394.2v211.4h229.3V312.2h355.9
	v227h71v214.2h16.4V811h-16.4l-6,236.1l6,469.5h182.8v-95.2h-75.7V1048h50.2v26.5h188.4v-30.2h14.6v94.3h94.7V1102h275.8v44.8h309.4
	v378.9h-46.4v70.5h-159.3v72.3h-478v386.2H1808v-155.6h322.2v24.7h114.7v74.1h54.6L2297.6,2367.7z"/>
<path id="GARDENIA-B-02" class="st0" d="M1250.9,1003.2H871.7V806.4H711.4V528.2h110.1V317.7h364.1v227.9h69.2V757h16.4v49.4h-19.1
	L1250.9,1003.2z"/>
<path id="GARDENIA-B-01" class="st0" d="M512.3,1005.9l2.7-202.3h189l8.2-280H596.7V315H201.6v230.6h-96.5v43.9h24.6V757h-10v43.9
	l5.5,5.5V930h113.5v76H512.3z"/>
<path id="GARDENIA-B-03" class="st0" d="M1357.3,1053.5v362.4h79.3v104.3H1849l3.6-422.8h-144.7v41.2h-92.8V1048h-15.5v22.9h-184.8
	V1048h-57.5V1053.5z"/>
<path id="GARDENIA-B-06" class="st0" d="M1477.7,2055.6h-254.8v-172.1H890.6v37.5H772.3v68.6h-79.6v127.2H685V2389h244.6v82.1h61.2
	v-28.4h164.7v22.9h51.9v-19.2h182.9v27.4h20.9v-27.4h200.9v-245.3h-134.5V2055.6z"/>
<path id="GARDENIA-B-07" class="st0" d="M531.2,1144.1l-0.9,199.5l182,0.9v316.7h-41.9v122.6h-73.7v57.7H482v12.8h-76.4v-7.3H193.2
	v-60.4h-6.4v-176.6H99.4v-51.2h27.3v-164.7h-13.6v-51.2h13.7v-125.4h113.8v-68.6L531.2,1144.1z"/>
<path id="GARDENIA-B-04" class="st0" d="M2299.5,1153.3v364.2h-47.3v80.5h-169.3v69.6h-238.4l0.9-570.2l141.1,1.8v52.2
	L2299.5,1153.3z"/>
<path id="GARDENIA-B-05" class="st0" d="M2299.5,1993.4v380.7h-227.5v98.8h-51v-33h-163.8v20.1h-47.3v-18.3h-129.2v-93.4h-75.7V2052
	h197.7v-148.3h322.2v22h118.3v67.7L2299.5,1993.4L2299.5,1993.4z"/>
</svg>
