<?xml version="1.0" encoding="utf-8"?>
<!-- Generator: Adobe Illustrator 25.0.1, SVG Export Plug-In . SVG Version: 6.00 Build 0)  -->
<svg version="1.1" id="GARDENIA-C" xmlns="http://www.w3.org/2000/svg" xmlns:xlink="http://www.w3.org/1999/xlink" x="0px" y="0px"
	 viewBox="0 0 4052 2720" style="enable-background:new 0 0 4052 2720;" xml:space="preserve">
<style type="text/css">
	.st0{fill:none;stroke:#000000;stroke-width:15;}
</style>
<image style="overflow:visible;enable-background:new    ;" width="4052" height="2720" xlink:href="37A823.png" >
</image>
<path id="GARDENIA-C-_BLOCK" class="st0" d="M139.7,593.4h252V484.5h45.6v31.7h176.6v-23.7h57.5v17.8h134.9v102.9h83.3v314.7h129
	V666.6h113.1V512.2H1473l-5.9-19.8h55.6v27.7h178.6v-35.6h49.6v77.2h295.6v310.8h-49.6v126.7h-57.5v75.2h-125v49.5h-369.1v-35.6
	h-160.7v318.7h154.8l-2-27.7h373v49.5h132.9v75.2h65.5v124.7h27.8v318.7h-295.6v77.2h-29.8v-33.7h-186.5v21.8H1471v-23.8h-337.3
	v-156.4h-119v-253.4h-129v306.8h-81.3v108.9h-131v15.8h-47.6v-25.7H433.3v41.6h-43.7v-108.9h-248v-411.7h51.6v-71.3h136.9V1397
	h168.7v-122.7h-37.7v-172.2h-97.2V997.2H131.8L139.7,593.4z"/>
<path id="GARDENIA-C-04" class="st0" d="M673.4,1438.6h125v141.5h86.3v305.8h-79.4v101.9H671.4v25.7h-51.6v-19.8H436.3v29.7h-48.6
	v-101.9h-246v-412.7h61.5v-76.2h122V1399h348.2V1438.6z"/>
<path id="GARDENIA-C-01" class="st0" d="M136.7,991.2V588.4h250V486.5h47.6v24.7h184.5v-18.8l50.6,1l2,14.8h136.9v108.9h84.3v308.8
	H788.5v130.6H672.4v50.5H361.9V992.2L136.7,991.2z"/>
<path id="GARDENIA-C-02_3bhk" class="st0" d="M1016.7,923.9V673.5h114.1V523.1h124v-39.6h15.9v27.7h196.4v-20.8h51.6v22.8h181.6
	v-32.7h55.6v87.1h277.8v305.8h-32.7v121.7h-60.5v77.2h-130v46.5h-364.1v-35.6h-188.5V928.9L1016.7,923.9z"/>
<path id="GARDENIA-C-03_" class="st0" d="M2035.5,1638.5v313.7h-281.8v72.2h-52.6v-30.7h-181.5v15.8h-51.6v-12.9h-196.4v25.7h-19.8
	v-23.8h-127v-159.3h-115.1v-260.3h255v-159.3h187.5v-29.7h360.1v39.6h127v78.2h67.5v129.7L2035.5,1638.5z"/>
</svg>
