<?xml version="1.0" encoding="utf-8"?>
<!-- Generator: Adobe Illustrator 25.0.1, SVG Export Plug-In . SVG Version: 6.00 Build 0)  -->
<svg version="1.1" id="GARDENIA-C" xmlns="http://www.w3.org/2000/svg" xmlns:xlink="http://www.w3.org/1999/xlink" x="0px" y="0px"
	 viewBox="0 0 8606 5018" style="enable-background:new 0 0 8606 5018;" xml:space="preserve">
<style type="text/css">
	.st0{fill:none;stroke:#000000;stroke-width:15;}
	.st1{fill:none;stroke:#000000;stroke-width:12;}
	.st2{fill:none;stroke:#000000;stroke-width:22;}
</style>
<image style="overflow:visible;enable-background:new    ;" width="8606" height="5018" id="Layer_0" xlink:href="B5A2B094.png" >
</image>
<path id="GARDENIA-C-_BLOCK" class="st0" d="M3091.5,3361.4h254.8v-109.7h46.1v31.9H3571v-23.9h58.2v18h136.4v103.7h84.3v317.2
	h130.4v-263.3h114.4v-155.6h345.1l-6-19.9h56.2v27.9h180.6v-35.9h50.2v77.8h259l6,313.2h-29.2v127.7h-67.2v75.8h-86.4v49.9h-391.2
	v-35.9h-162.5v321.2h156.5l-2-27.9h377.2v49.9h94.4v75.8h86.2l-10,125.7h19.1l-1,303.2h-258.9v95.8h-30.1v-33.9h-188.6v21.9h-54.2
	v-23.9h-341.1v-157.6h-120.4v-255.3h-130.4V4664h-82.3v109.7h-132.4v16H3583v-25.9h-194.6v41.9h-44.1v-109.7h-250.8V4281h52.2v-71.8
	h138.4v-37.9h170.5v-123.7h-38.1V3874h-98.3v-105.7h-234.7L3091.5,3361.4z"/>
<path id="GARDENIA-C-04" class="st0" d="M3631.2,4213.1h126.4v142.6h87.3V4664h-80.3v102.7h-135.4v25.9H3577v-20h-185.6v29.9h-49.2
	v-102.7h-248.8V4284h62.2v-76.8H3279v-33.9h352.1V4213.1z"/>
<path id="GARDENIA-C-01" class="st0" d="M3088.4,3762.3v-405.9h252.8v-102.7h48.1v24.9H3576v-18.9l51.2,1l2,15h138.4v109.7h85.3
	v311.2h-105.3v131.7h-117.4v50.9h-314v-115.7L3088.4,3762.3z"/>
<path id="GARDENIA-C-02" class="st0" d="M3978.3,3694.5v-252.3h115.4v-151.6H4219v-39.9h16v27.9h198.6v-20.9h52.2v22.9h183.6v-32.9
	h56.2v87.8h240.9l15,308.2h-18.1l-3,122.7h-70.2v77.8h-91.4v46.9h-386.2v-35.9H4222v-155.6L3978.3,3694.5z"/>
<path id="GARDENIA-C-03_" class="st0" d="M4969.5,4414.6l-1,298.2h-244.9v90.8h-53.2v-30.9h-183.6v16h-52.2v-13h-198.6v25.9H4216
	v-23.9h-128.4v-160.6h-116.4v-262.3h257.8v-160.6h189.6v-29.9h364.2v39.9h88.4v78.8h88.2l8,130.7L4969.5,4414.6z"/>
<path id="GARDENIA-B-02" class="st0" d="M1947.8,3202.8h-411.3v-214.4h-196.6v-303.2h121.4v-229.4h411.3v248.4h76.2v230.4h18.1v53.9
	h-21.1L1947.8,3202.8z"/>
<path id="GARDENIA-B-01" class="st0" d="M1150.3,3205.8l3-220.4h178.6l9-305.2h-127.4v-227.4H801.2v251.3H694.8v47.9h27.1v182.5h-11
	v47.9l6,6V3123h128.4v82.8H1150.3z"/>
<path id="GARDENIA-B-03" class="st0" d="M2065.2,3257.6v395h74.2v113.7h454.4l4-460.8h-159.5v44.9h-102.3v-98.8H2319v24.9h-203.6
	v-24.9h-50.2V3257.6z"/>
<path id="GARDENIA-B-06" class="st0" d="M2184.6,4349.8h-280.9v-187.5h-366.2v40.9h-130.4l-9,74.8h-51.2v138.6h-13.1l-3,296.2h262.9
	v89.8h54.2v-30.9h181.6v24.9h57.2v-20.9h201.6v29.9h23.1v-29.9h234.8v-267.3h-161.5V4349.8z"/>
<path id="GARDENIA-B-07" class="st0" d="M1141.3,3356.4l-1,217.4l200.6,1v345.1h-46.2v133.6h-81.3v62.8h-126.4v14h-84.3v-8H795.2
	v-65.8h-7V3864h-96.3v-55.8h30.1v-179.5h-15.1v-55.9h15v-136.6h125.4v-74.8L1141.3,3356.4z"/>
<path id="GARDENIA-B-04" class="st0" d="M3090.4,3366.3v397h-52.2v87.8h-186.6v75.8h-262.8l1-621.4l155.5,2v56.9L3090.4,3366.3z"/>
<path id="GARDENIA-B-05" class="st0" d="M3090.4,4282v414.9h-250.8v107.7h-56.2v-35.9h-180.6v22h-52.2v-20h-142.4V4669h-70.2v-323.2
	h204.6v-161.6h355.1v23.9h130.4v73.8H3090.4L3090.4,4282z"/>
<path id="_GARDENIA-B-BLOCK" class="st0" d="M3088.4,4689.9h-260.8v111.7h-48.1v-37.9l-172.6,4l-1,23.9h-57.2v-17h-142.5V4666h-68.2
	v104.7h-451.4v20h-58.2v-20h-179.6v33.9h-50.2v-96.8h-271.9l3-299.2h31.1V4287h39.2l9-80.8h129.4v-49.9h227.7v-325.2h-212.7v-69.8
	h-220.7v157.6h-40.1v135.6h-82.3v63.8h-126.4v12h-81.3v-10H804.2v-67.8h-14v-192.5h-97.3v-49.9h30.1v-182.5h-13v-54.9h16.1v-136.6
	h123.4v-75.8h194.6v-149.6H843.3V3129H724.9v-143.6h-15v-50.9H734v-181.5h-35.1v-43.9h105.3v-259.3h411.3v230.4h252.8v-230.4h402.3
	v247.4h78.2v233.4h18.1v62.8h-18.1v769h191.6v-103.7h-70.2v-407h42.1v28.9H2320v-32.9h16.1v102.7h104.3v-39.9h304v48.9h341.1v412.9
	h-51.2v76.8h-175.6v78.8h-513.6v420.9h203.6v-169.6h355.1v26.9h126.4v80.8h60.2L3088.4,4689.9z"/>
<path id="GARDENIA-A-01" class="st0" d="M2342.1,149.7V415h-157.5v352.1h-648.1v-47.9l-129.4-2v-71.8h-73.2V517.7h-32.1V192.6h292.9
	v-72.8h50.2v24.9h184.6v-16h51.2v19.9h208.7v-29.9h18.1v28.9L2342.1,149.7z"/>
<path id="GARDENIA-A-02" class="st0" d="M3342.2,633.4H3275v80.8h-126.4v53.9h-378.2V586.6h-273.9V417h-152.5V150.7h458.5v-15h51.2
	v22.9h184.6v-35.9h49.1v76.8h290.9v317.2h-37.1L3342.2,633.4z"/>
<path id="GARDENIA-A-03" class="st1" d="M2585.9,972.6h272.9v81.8h178.6v73.8h61.2v420.9h-355.1v46.9h-151.5L2585.9,972.6z"/>
<path id="GARDENIA-A-04" class="st0" d="M2589.9,1127.2h-448.4v117.7h-79.2v406.9h50.2v-33.9H2318v33.9h17.1v-100.7h105.3v45.9
	h151.5L2589.9,1127.2z"/>
<path id="GARDENIA-A-05" class="st0" d="M1943.8,1700.7v211.4h23.1l-1,54.9h-20.1l5,231.4h-77.2v252.3h-411.3v-232.4h-122.4v-304.2
	h193.6v-214.4L1943.8,1700.7z"/>
<path id="GARDENIA-A-06" class="st0" d="M1148.3,1700.7v212.4l186.6,3v311.2h-122.4v220.4H799.2v-248.4H694.8v-46.9H735V1964h-26.1
	v-48.9h18.1v-135.6h124.4l1-76.8L1148.3,1700.7z"/>
<path id="GARDENIA-A-07_" class="st0" d="M1213.5,796h-127.4v-25.9h-82.3v16H797.2v248.4H692.8v57.8h32.1v180.5h-17.1v55.9h12v139.6
	h121.4v77.8h499.6V979.5h-48.2V843.9h-78.2L1213.5,796z"/>
<path id="_GARDENIA-A-BLOCK" class="st2" d="M1304.8,196.6h287.9v-72.8h56.2v25.9h183.6v-15h53.2v15h206.7v-27.9h15.1v25.9h471.5
	v-25.9h14v25.9h207.7v-12h54.2v13h182.6v-24.9h54.2v67.8h290.9v327.2h-38.1v121.7H3277v77.8h-127.4v49.9h-379.2V585.6h-418.3v378
	h511.6v19h-7v71.8h183.6v72.8h57.2v420.9h-347.1v48.9h-312v-47.9h-101.3v101.7H2318v-27.9h-203.6v26.9h-54.2v-404h74.2v-100.7
	h-180.6v767h16.1v56.8h-15v233.4h-74.2v248.4H796.2v-249.3H694.8v-48.9h31.1V1969h-17.1v-56.8h17.1v-138.6h113.4v-80.8h193.6v-144.6
	H843.3v-79.8H722.9v-138.6h-15v-58.8h20.1v-177.5h-33.1v-53.9h94.3V842.9h14v-59.8h200.6v-10h86.3v12h131.4v60.8h73.2v132.7h52.2
	v151.6h196.6v-60.8h214.7V773.1h-220.7v-53.9h-133.4v-73.8h-68.2V519.7h-34.1L1304.8,196.6z"/>
</svg>
