<?xml version="1.0" encoding="utf-8"?>
<!-- Generator: Adobe Illustrator 25.0.1, SVG Export Plug-In . SVG Version: 6.00 Build 0)  -->
<svg version="1.1" id="Layer_1" xmlns="http://www.w3.org/2000/svg" xmlns:xlink="http://www.w3.org/1999/xlink" x="0px" y="0px"
	 viewBox="0 0 3914 2720" style="enable-background:new 0 0 3914 2720;" xml:space="preserve">
<style type="text/css">
	.st0{
		fill:none;
		stroke:#000000;
		stroke-width:15;
	}
</style>
<image style="overflow:visible;enable-background:new;" width="3914" height="2720" xlink:href="https://i.ibb.co/L5dbqvB/D5BE7AA0.png">
</image>
<path id="DAISY-B_-BLOCK" class="st0" d="M1232.2,458.4l-314-3.9l1.5,182.7H729V453H416.5v198.1h-82.7v35.5h26.8v148.8h-16.1v35.5
	h15.3v106.4h94.2v60.1h111.8v86.3H451v56.3h-91.9v107.9h-13v37h14.6v145.7h-29.1v38.6h79.7v198.1h320.1v-54h55.9v-98.7h36v229.7
	H505.4v30.1h-96.5v59.4H356v97.9h-7.3v225.9h206.4v79.4h36.8v-29.3h141.7v20.8h42.1V2250h256.6v-119.5H1223v121h443.5v24.7h35.2
	v-75.8h203.3v-222.5h-7.3v-93.3h-48.2v-64H1753v-34.7h149.3v-167.3h-183v-30.1h135.6v-63.2h47.5v-315.3h-271.1v-38.6h-227.5v36.2
	h-85v-54h-195.3v-120.3h77.3v-54h90.4V867h12.2v-35.5h-15.3V628h-53.6L1232.2,458.4z"/>

<path id="DAISY_B_1-12_107" class="st0" d="M416.5,1508v200.8h314.8v-49.3h54.4v-101.8h37.5v-263.7H675.4v-255.9H563.6v85.6H448.7v57.8
	h-91.9v104.1h-16.9v36.2h19.1v148h-32.2v37.8L416.5,1508z"/>

<path id="DAISY_B_1-12_106" class="st0" d="M995.5,1780l2.3,146.8l133.8,3.9l-5.4,198.9l-96.1-2.3l1.5,125.9l-256-5.4l-1.5,17.1h-46.1
	v-21l-139.2,1.6l-2.3,28.7l-36.1-0.8l1.5-76.1l-207.6,1.6l4.6-337.9h50.7l0.8-55.2H495v-26.4L995.5,1780z"/>

<path id="DAISY_B_1-12_105" class="st0" d="M1719.8,1782.3h34.6v32.6h96.1l0.8,58.3h50.8v97.9h10.8v69.9h-9.2v149.2h-204.5v88.6h-30
	v-26.4h-449.8v-121.2h-90v-207.4h133v-141.4H1719.8L1719.8,1782.3z"/>
<path id="DAISY_B_1-12_104" class="st0" d="M1519.4,1174.6h111.1v41.6h268.1v309.1h-43.7v62.4h-133.3v30.1h-206.8v-87.1L1519.4,1174.6z"
	/>
<path id="DAISY_B_1-12_103" class="st0" d="M1515.6,1520v-348.5h-107.2v37h-93.4v-54h-193.8v204.3l-2.3,75.6l38.3-0.8l19.1-0.8l-1.5,87.1
	L1515.6,1520L1515.6,1520z"/>
<path id="DAISY_B_1-12_102" class="st0" d="M950.4,1035.8h245.9c0,0-4.9-61.7,0-61.7h93.4V870.1h13v-38.5h-16.8V628h-54.4V453.8H919V638
	h-91.1v227.4h144v87.1h-20.7L950.4,1035.8z"/>
	
<path id="DAISY_B_1-12_101" class="st0" d="M729.8,456.9H417.3v195.8h-81.2v36.2h28.3v141.8h-18.4v40.1h14.6v106.4h92.7v60.1h228.2v-165
	h144V634.9h-98L729.8,456.9z"/>

</svg>