<?xml version="1.0" encoding="utf-8"?>
<!-- Generator: Adobe Illustrator 25.0.1, SVG Export Plug-In . SVG Version: 6.00 Build 0)  -->
<svg version="1.1" id="Layer_1" xmlns="http://www.w3.org/2000/svg" xmlns:xlink="http://www.w3.org/1999/xlink" x="0px" y="0px"
	 viewBox="0 0 1120 923" style="enable-background:new 0 0 1120 923;" xml:space="preserve">
<style type="text/css">
	.st0{fill:none;stroke:#000000;stroke-width:3;}
</style>
<image style="overflow:visible;" width="1120" height="923" xlink:href="https://i.ibb.co/Rj9HTzh/Elderberry.jpg" >
</image>
<path id="ELDERBERRY-A-BLOCK" class="st0" d="M292.2,210.4H257v-5.2h-22.3v3.8h-57.2v16.8h-2.9v53.7h-25.2v14.5h7.9v50.2h-3.8v14.8
	h3.8v46.4h32v201.3h-32v38.6h-3.5v14.5h2.9v50.5h-8.5v15.7h27.6v66.7h115.5v-15.4h22.6v-36.5h24.9v36.5h21.7v16h112.3v-60h21.7
	v-73.7h4.1v-12.9H493v-38.1h-33.1v-21.8H333.6V479.8h137.5v-75.7h32.3v-46.4h5.3v-13.9h-4.5v-50.5h8v-12.8h-27v-71.4h-58.1v-3.5h-22
	v3.2h-37.2v17.4h-19.6v37.4h-15.5v-2.3h-4.1v2.9h-15.2V226h-21.1V210.4z"/>
<path id="ELDERBERRY-A-04" class="st0" d="M323.6,647.8l-51.3,0.9V617l19.1,0.9l-0.3-29.3l-98.5,0.3V608h-34v37.1H153v14.5h5v49.6
	h-9.4V724h28.1v69.3H291v-15.1l22,0.3l0.3-37.1h10.6L323.6,647.8z"/>
<path id="ELDERBERRY-A-03" class="st0" d="M360.5,795.7h110.8l0.9-62.3h22.1v-72.6h5.9v-13.9h-6.6v-37.9h-33.1v-19.5l-127.8-0.6
	v29.3h44.9v29.6h-51.9v91.4h11.7v39.7h22.6L360.5,795.7z"/>
<path id="ELDERBERRY-A-02" class="st0" d="M372.3,225.5l-24,0.3l-0.3,36h-16.4l1.2,101.8l47.2-0.3l-0.3,54.8h-8.2v61.5l32.8,0.3
	l67.7-0.6v-76h31.8v-45.8h4.7v-15.1h-3.8V293h7.9v-14.2h-27.1v-69l-56.9-0.3v-4.1h-23.5v4.6l-32.8-0.3L372.3,225.5z"/>
<path id="ELDERBERRY-A-01" class="st0" d="M291.9,225.2l22.3,0.6l0.3,36.3h16.4l-1.2,101.8l-46-0.3l0.9,54.5h6.5v61.5l-32.8,0.3
	l-66.8,1.2l0.3-77.7h-33.7v-45.8h-4.7v-15.1h6.7V293h-10v-14.2h27.3v-69l56.9-0.3v-4.1h23.5v5.2h34.3L291.9,225.2z"/>
</svg>
